<svg version="1.1" viewBox="0.0 0.0 252.06299212598427 248.49081364829397" fill="none" stroke="none" stroke-linecap="square" stroke-miterlimit="10" xmlns:xlink="http://www.w3.org/1999/xlink" xmlns="http://www.w3.org/2000/svg"><clipPath id="p.0"><path d="m0 0l252.06299 0l0 248.49081l-252.06299 0l0 -248.49081z" clip-rule="nonzero"/></clipPath><g clip-path="url(#p.0)"><path fill="#000000" fill-opacity="0.0" d="m0 0l252.06299 0l0 248.49081l-252.06299 0z" fill-rule="evenodd"/><path fill="#d9d9d9" d="m137.56436 50.748703c-9.232941 6.062752 -20.939789 6.93528 -30.96946 2.3081932l13.405098 -29.056896z" fill-rule="evenodd"/><path fill="#d9d9d9" d="m192.25923 188.06488c-1.5629272 -12.204147 4.00972 -24.223587 14.333984 -30.916397l17.406784 26.851517z" fill-rule="evenodd"/><path fill="#d9d9d9" d="m45.9593 179.20525l0 0c9.78186 4.742111 16.48732 14.125885 17.804813 24.916458l-31.764114 3.878296z" fill-rule="evenodd"/><path fill="#000000" fill-opacity="0.0" d="m120.0 24.0l-88.0 184.0" fill-rule="evenodd"/><path stroke="#000000" stroke-width="1.0" stroke-linejoin="round" stroke-linecap="butt" d="m120.0 24.0l-85.41127 178.58719" fill-rule="evenodd"/><path fill="#000000" stroke="#000000" stroke-width="1.0" stroke-linecap="butt" d="m33.098648 201.87454l-0.46790314 4.8066254l3.4480705 -3.3813171z" fill-rule="evenodd"/><path fill="#000000" fill-opacity="0.0" d="m32.0 208.0l192.0 -24.0" fill-rule="evenodd"/><path stroke="#000000" stroke-width="1.0" stroke-linejoin="round" stroke-linecap="butt" d="m32.0 208.0l186.04634 -23.255783" fill-rule="evenodd"/><path fill="#000000" stroke="#000000" stroke-width="1.0" stroke-linecap="butt" d="m218.2512 186.38318l4.2981873 -2.2018585l-4.7079315 -1.0760956z" fill-rule="evenodd"/><path fill="#000000" fill-opacity="0.0" d="m104.0 45.984253l32.0 0l0 42.015747l-32.0 0z" fill-rule="evenodd"/><path fill="#000000" d="m123.96875 68.21675l1.765625 0.453125q-0.5625 2.171875 -2.0 3.328125q-1.4375 1.140625 -3.53125 1.140625q-2.15625 0 -3.515625 -0.875q-1.34375 -0.890625 -2.0625 -2.546875q-0.703125 -1.671875 -0.703125 -3.59375q0 -2.078125 0.796875 -3.625q0.796875 -1.5625 2.265625 -2.359375q1.484375 -0.8125 3.25 -0.8125q2.0 0 3.359375 1.015625q1.375 1.015625 1.90625 2.875l-1.734375 0.40625q-0.46875 -1.453125 -1.359375 -2.109375q-0.875 -0.671875 -2.203125 -0.671875q-1.546875 0 -2.578125 0.734375q-1.03125 0.734375 -1.453125 1.984375q-0.421875 1.234375 -0.421875 2.5625q0 1.703125 0.5 2.96875q0.5 1.265625 1.546875 1.90625q1.046875 0.625 2.265625 0.625q1.484375 0 2.515625 -0.859375q1.03125 -0.859375 1.390625 -2.546875z" fill-rule="nonzero"/><path fill="#000000" fill-opacity="0.0" d="m224.0 184.0l-104.0 -160.0" fill-rule="evenodd"/><path stroke="#000000" stroke-width="1.0" stroke-linejoin="round" stroke-linecap="butt" d="m224.0 184.0l-100.73007 -154.96935" fill-rule="evenodd"/><path fill="#000000" stroke="#000000" stroke-width="1.0" stroke-linecap="butt" d="m124.654816 28.130487l-3.8580933 -2.9047642l1.0883255 4.7051125z" fill-rule="evenodd"/><path fill="#000000" fill-opacity="0.0" d="m104.0 184.0l49.95276 0l0 42.015747l-49.95276 0z" fill-rule="evenodd"/><path fill="#000000" d="m133.82013 202.93562q1.203125 1.328125 2.078125 2.015625q0.890625 0.6875 1.671875 1.015625l0 0.421875q-0.890625 0.4375 -1.75 1.125q-0.84375 0.671875 -2.015625 1.96875l-0.703125 0q0.859375 -1.828125 1.796875 -2.8125l-14.53125 0l0 -0.921875l14.53125 0q-0.6875 -0.875 -0.96875 -1.296875q-0.265625 -0.4375 -0.8125 -1.515625l0.703125 0z" fill-rule="nonzero"/><path fill="#000000" fill-opacity="0.0" d="m104.97638 191.82837l48.0 0l0 42.015747l-48.0 0z" fill-rule="evenodd"/><path fill="#000000" d="m131.85919 215.20149l1.609375 0.21875q-0.265625 1.65625 -1.359375 2.609375q-1.078125 0.9375 -2.671875 0.9375q-1.984375 0 -3.1875 -1.296875q-1.203125 -1.296875 -1.203125 -3.71875q0 -1.578125 0.515625 -2.75q0.515625 -1.171875 1.578125 -1.75q1.0625 -0.59375 2.3125 -0.59375q1.578125 0 2.578125 0.796875q1.0 0.796875 1.28125 2.265625l-1.59375 0.234375q-0.234375 -0.96875 -0.8125 -1.453125q-0.578125 -0.5 -1.390625 -0.5q-1.234375 0 -2.015625 0.890625q-0.78125 0.890625 -0.78125 2.8125q0 1.953125 0.75 2.84375q0.75 0.875 1.953125 0.875q0.96875 0 1.609375 -0.59375q0.65625 -0.59375 0.828125 -1.828125z" fill-rule="nonzero"/><path fill="#000000" fill-opacity="0.0" d="m40.0 69.98425l49.95276 0l0 42.015747l-49.95276 0z" fill-rule="evenodd"/><path fill="#000000" d="m69.82013 88.919876q1.203125 1.328125 2.078125 2.015625q0.890625 0.6875 1.671875 1.015625l0 0.421875q-0.890625 0.4375 -1.75 1.125q-0.84375 0.671875 -2.015625 1.96875l-0.703125 0q0.859375 -1.828125 1.796875 -2.8125l-14.53125 0l0 -0.921875l14.53125 0q-0.6875 -0.875 -0.96875 -1.296875q-0.265625 -0.4375 -0.8125 -1.515625l0.703125 0z" fill-rule="nonzero"/><path fill="#000000" fill-opacity="0.0" d="m40.97638 80.35009l48.0 0l0 42.015747l-48.0 0z" fill-rule="evenodd"/><path fill="#000000" d="m62.522896 107.27009l-1.515625 0l0 -13.359375l1.640625 0l0 4.765625q1.046875 -1.296875 2.65625 -1.296875q0.890625 0 1.6875 0.359375q0.796875 0.359375 1.3125 1.015625q0.515625 0.640625 0.796875 1.5625q0.296875 0.921875 0.296875 1.96875q0 2.484375 -1.234375 3.84375q-1.21875 1.359375 -2.953125 1.359375q-1.703125 0 -2.6875 -1.4375l0 1.21875zm-0.015625 -4.90625q0 1.734375 0.484375 2.515625q0.765625 1.265625 2.09375 1.265625q1.078125 0 1.859375 -0.9375q0.78125 -0.9375 0.78125 -2.78125q0 -1.890625 -0.75 -2.796875q-0.75 -0.90625 -1.828125 -0.90625q-1.0625 0 -1.859375 0.9375q-0.78125 0.9375 -0.78125 2.703125z" fill-rule="nonzero"/><path fill="#000000" fill-opacity="0.0" d="m158.04724 58.878696l49.95276 0l0 42.01575l-49.95276 0z" fill-rule="evenodd"/><path fill="#000000" d="m187.86737 77.814316q1.203125 1.328125 2.078125 2.015625q0.890625 0.6875 1.671875 1.015625l0 0.421875q-0.890625 0.4375 -1.75 1.125q-0.84375 0.671875 -2.015625 1.96875l-0.703125 0q0.859375 -1.828125 1.796875 -2.8125l-14.53125 0l0 -0.921875l14.53125 0q-0.6875 -0.875 -0.96875 -1.296875q-0.265625 -0.4375 -0.8125 -1.515625l0.703125 0z" fill-rule="nonzero"/><path fill="#000000" fill-opacity="0.0" d="m159.02362 67.70868l48.0 0l0 42.015755l-48.0 0z" fill-rule="evenodd"/><path fill="#000000" d="m185.38264 93.44118q-0.921875 0.765625 -1.765625 1.09375q-0.828125 0.3125 -1.796875 0.3125q-1.59375 0 -2.453125 -0.78125q-0.859375 -0.78125 -0.859375 -1.984375q0 -0.71875 0.328125 -1.296875q0.328125 -0.59375 0.84375 -0.9375q0.53125 -0.359375 1.1875 -0.546875q0.46875 -0.125 1.453125 -0.25q1.984375 -0.234375 2.921875 -0.5625q0.015625 -0.34375 0.015625 -0.421875q0 -1.0 -0.46875 -1.421875q-0.625 -0.546875 -1.875 -0.546875q-1.15625 0 -1.703125 0.40625q-0.546875 0.40625 -0.8125 1.421875l-1.609375 -0.21875q0.21875 -1.015625 0.71875 -1.640625q0.5 -0.640625 1.453125 -0.984375q0.953125 -0.34375 2.1875 -0.34375q1.25 0 2.015625 0.296875q0.78125 0.28125 1.140625 0.734375q0.375 0.4375 0.515625 1.109375q0.078125 0.421875 0.078125 1.515625l0 2.1875q0 2.28125 0.109375 2.890625q0.109375 0.59375 0.40625 1.15625l-1.703125 0q-0.265625 -0.515625 -0.328125 -1.1875zm-0.140625 -3.671875q-0.890625 0.375 -2.671875 0.625q-1.015625 0.140625 -1.4375 0.328125q-0.421875 0.1875 -0.65625 0.53125q-0.21875 0.34375 -0.21875 0.78125q0 0.65625 0.5 1.09375q0.5 0.4375 1.453125 0.4375q0.9375 0 1.671875 -0.40625q0.75 -0.421875 1.09375 -1.140625q0.265625 -0.5625 0.265625 -1.640625l0 -0.609375z" fill-rule="nonzero"/><path fill="#000000" fill-opacity="0.0" d="m168.0 149.98425l32.0 0l0 42.015747l-32.0 0z" fill-rule="evenodd"/><path fill="#000000" d="m178.35938 176.90425l0 -13.359375l5.015625 0q1.53125 0 2.453125 0.40625q0.921875 0.40625 1.4375 1.25q0.53125 0.84375 0.53125 1.765625q0 0.859375 -0.46875 1.625q-0.453125 0.75 -1.390625 1.203125q1.203125 0.359375 1.859375 1.21875q0.65625 0.859375 0.65625 2.015625q0 0.9375 -0.40625 1.75q-0.390625 0.796875 -0.984375 1.234375q-0.578125 0.4375 -1.453125 0.671875q-0.875 0.21875 -2.15625 0.21875l-5.09375 0zm1.78125 -7.75l2.875 0q1.1875 0 1.6875 -0.140625q0.671875 -0.203125 1.015625 -0.671875q0.34375 -0.46875 0.34375 -1.171875q0 -0.65625 -0.328125 -1.15625q-0.3125 -0.515625 -0.90625 -0.703125q-0.59375 -0.1875 -2.03125 -0.1875l-2.65625 0l0 4.03125zm0 6.171875l3.3125 0q0.859375 0 1.203125 -0.0625q0.609375 -0.109375 1.015625 -0.359375q0.421875 -0.265625 0.6875 -0.75q0.265625 -0.484375 0.265625 -1.125q0 -0.75 -0.390625 -1.296875q-0.375 -0.546875 -1.0625 -0.765625q-0.671875 -0.234375 -1.953125 -0.234375l-3.078125 0l0 4.59375z" fill-rule="nonzero"/><path fill="#000000" fill-opacity="0.0" d="m50.975746 159.64992l32.0 0l0 42.015747l-32.0 0z" fill-rule="evenodd"/><path fill="#000000" d="m59.944496 186.56992l5.125 -13.359375l1.90625 0l5.46875 13.359375l-2.015625 0l-1.546875 -4.046875l-5.59375 0l-1.46875 4.046875l-1.875 0zm3.859375 -5.484375l4.53125 0l-1.40625 -3.703125q-0.625 -1.6875 -0.9375 -2.765625q-0.265625 1.28125 -0.71875 2.546875l-1.46875 3.921875z" fill-rule="nonzero"/></g></svg>