<svg version="1.1" viewBox="0.0 0.0 745.3333333333334 662.0" fill="none" stroke="none" stroke-linecap="square" stroke-miterlimit="10" xmlns:xlink="http://www.w3.org/1999/xlink" xmlns="http://www.w3.org/2000/svg"><clipPath id="p.0"><path d="m0 0l745.3333 0l0 662.0l-745.3333 0l0 -662.0z" clip-rule="nonzero"/></clipPath><g clip-path="url(#p.0)"><path fill="#000000" fill-opacity="0.0" d="m0 0l745.3333 0l0 662.0l-745.3333 0z" fill-rule="evenodd"/><path fill="#b7b7b7" d="m289.22598 530.30786c-13.465332 -12.649231 -22.137634 -29.569092 -24.544312 -47.886475l79.31833 -10.421387z" fill-rule="evenodd"/><path fill="#d9d9d9" d="m564.4998 162.00256l0 0c10.567444 10.223373 17.29248 23.773575 19.044312 38.372147l-63.54413 7.62529z" fill-rule="evenodd"/><path fill="#000000" fill-opacity="0.0" d="m232.0 221.98425l152.0 -160.0" fill-rule="evenodd"/><path stroke="#000000" stroke-width="1.0" stroke-linejoin="round" stroke-linecap="butt" d="m232.0 221.98425l147.8675 -155.65" fill-rule="evenodd"/><path fill="#000000" stroke="#000000" stroke-width="1.0" stroke-linecap="butt" d="m381.065 67.47188l1.9281006 -4.4277496l-4.3230896 2.1524887z" fill-rule="evenodd"/><path fill="#000000" fill-opacity="0.0" d="m32.0 69.98425l192.0 -24.0" fill-rule="evenodd"/><path stroke="#000000" stroke-width="1.0" stroke-linejoin="round" stroke-linecap="butt" d="m32.0 69.98425l186.04634 -23.255795" fill-rule="evenodd"/><path fill="#000000" stroke="#000000" stroke-width="1.0" stroke-linecap="butt" d="m218.2512 48.36744l4.2981873 -2.2018623l-4.7079315 -1.0760956z" fill-rule="evenodd"/><path fill="#000000" fill-opacity="0.0" d="m184.0 205.98425l48.0 0l0 42.015747l-48.0 0z" fill-rule="evenodd"/><path fill="#000000" d="m203.96875 228.21675l1.765625 0.453125q-0.5625 2.171875 -2.0 3.328125q-1.4375 1.140625 -3.53125 1.140625q-2.15625 0 -3.515625 -0.875q-1.34375 -0.890625 -2.0625 -2.546875q-0.703125 -1.671875 -0.703125 -3.59375q0 -2.078125 0.796875 -3.625q0.796875 -1.5625 2.265625 -2.359375q1.484375 -0.8125 3.25 -0.8125q2.0 0 3.359375 1.015625q1.375 1.015625 1.90625 2.875l-1.734375 0.40625q-0.46875 -1.453125 -1.359375 -2.109375q-0.875 -0.671875 -2.203125 -0.671875q-1.546875 0 -2.578125 0.734375q-1.03125 0.734375 -1.453125 1.984375q-0.421875 1.234375 -0.421875 2.5625q0 1.703125 0.5 2.96875q0.5 1.265625 1.546875 1.90625q1.046875 0.625 2.265625 0.625q1.484375 0 2.515625 -0.859375q1.03125 -0.859375 1.390625 -2.546875z" fill-rule="nonzero"/><path fill="#000000" fill-opacity="0.0" d="m392.0 37.984253l56.0 0l0 42.015747l-56.0 0z" fill-rule="evenodd"/><path fill="#000000" d="m402.4375 64.90425l0 -13.359375l4.609375 0q1.546875 0 2.375 0.203125q1.140625 0.25 1.953125 0.953125q1.0625 0.890625 1.578125 2.28125q0.53125 1.390625 0.53125 3.171875q0 1.515625 -0.359375 2.703125q-0.359375 1.171875 -0.921875 1.9375q-0.546875 0.765625 -1.203125 1.21875q-0.65625 0.4375 -1.59375 0.671875q-0.9375 0.21875 -2.140625 0.21875l-4.828125 0zm1.765625 -1.578125l2.859375 0q1.3125 0 2.0625 -0.234375q0.75 -0.25 1.203125 -0.703125q0.625 -0.625 0.96875 -1.6875q0.359375 -1.0625 0.359375 -2.578125q0 -2.09375 -0.6875 -3.21875q-0.6875 -1.125 -1.671875 -1.5q-0.703125 -0.28125 -2.28125 -0.28125l-2.8125 0l0 10.203125z" fill-rule="nonzero"/><path fill="#000000" fill-opacity="0.0" d="m16.0 77.98425l48.0 0l0 42.015747l-48.0 0z" fill-rule="evenodd"/><path fill="#000000" d="m24.96875 104.90425l5.125 -13.359375l1.90625 0l5.46875 13.359375l-2.015625 0l-1.546875 -4.046875l-5.59375 0l-1.46875 4.046875l-1.875 0zm3.859375 -5.484375l4.53125 0l-1.40625 -3.703125q-0.625 -1.6875 -0.9375 -2.765625q-0.265625 1.28125 -0.71875 2.546875l-1.46875 3.921875z" fill-rule="nonzero"/><path fill="#000000" fill-opacity="0.0" d="m216.0 53.984253l48.0 0l0 42.015747l-48.0 0z" fill-rule="evenodd"/><path fill="#000000" d="m226.35938 80.90425l0 -13.359375l5.015625 0q1.53125 0 2.453125 0.40625q0.921875 0.40625 1.4375 1.25q0.53125 0.84375 0.53125 1.765625q0 0.859375 -0.46875 1.625q-0.453125 0.75 -1.390625 1.203125q1.203125 0.359375 1.859375 1.21875q0.65625 0.859375 0.65625 2.015625q0 0.9375 -0.40625 1.75q-0.390625 0.796875 -0.984375 1.234375q-0.578125 0.4375 -1.453125 0.671875q-0.875 0.21875 -2.15625 0.21875l-5.09375 0zm1.78125 -7.75l2.875 0q1.1875 0 1.6875 -0.140625q0.671875 -0.203125 1.015625 -0.671875q0.34375 -0.46875 0.34375 -1.171875q0 -0.65625 -0.328125 -1.15625q-0.3125 -0.515625 -0.90625 -0.703125q-0.59375 -0.1875 -2.03125 -0.1875l-2.65625 0l0 4.03125zm0 6.171875l3.3125 0q0.859375 0 1.203125 -0.0625q0.609375 -0.109375 1.015625 -0.359375q0.421875 -0.265625 0.6875 -0.75q0.265625 -0.484375 0.265625 -1.125q0 -0.75 -0.390625 -1.296875q-0.375 -0.546875 -1.0625 -0.765625q-0.671875 -0.234375 -1.953125 -0.234375l-3.078125 0l0 4.59375z" fill-rule="nonzero"/><path fill="#000000" fill-opacity="0.0" d="m520.0 208.0l152.0 -160.0" fill-rule="evenodd"/><path stroke="#000000" stroke-width="1.0" stroke-linejoin="round" stroke-linecap="butt" d="m520.0 208.0l147.8675 -155.65" fill-rule="evenodd"/><path fill="#000000" stroke="#000000" stroke-width="1.0" stroke-linecap="butt" d="m669.065 53.487625l1.9281006 -4.427746l-4.32312 2.1524887z" fill-rule="evenodd"/><path fill="#000000" fill-opacity="0.0" d="m520.0 208.0l192.0 -24.0" fill-rule="evenodd"/><path stroke="#000000" stroke-width="1.0" stroke-linejoin="round" stroke-linecap="butt" d="m520.0 208.0l186.04633 -23.255783" fill-rule="evenodd"/><path fill="#000000" stroke="#000000" stroke-width="1.0" stroke-linecap="butt" d="m706.2512 186.38318l4.2981567 -2.2018585l-4.707947 -1.0760956z" fill-rule="evenodd"/><path fill="#000000" fill-opacity="0.0" d="m568.0 99.244095l32.59845 -35.244095l30.866089 28.503937l-32.59839 35.244095z" fill-rule="evenodd"/><path fill="#000000" d="m597.8924 99.667885l1.5317993 -0.98876953q1.213623 1.8864212 1.0870361 3.7261658q-0.13812256 1.8291397 -1.5598145 3.366211q-1.4641113 1.582962 -3.0300293 1.9872742q-1.5667114 0.38224792 -3.2715454 -0.21376038q-1.7056885 -0.61808014 -3.1176147 -1.9219437q-1.5267334 -1.409874 -2.1220703 -3.0443344q-0.6068115 -1.6450653 -0.19488525 -3.263939q0.4109497 -1.6409454 1.6098633 -2.9371338q1.3580322 -1.4682465 3.0272217 -1.7771606q1.6797485 -0.32038116 3.4064941 0.5510788l-0.8792114 1.5488663q-1.3858032 -0.64173126 -2.4727173 -0.43312836q-1.0877075 0.18653107 -1.989563 1.1615448q-1.050354 1.1355972 -1.2110596 2.3908844q-0.16070557 1.2552948 0.47113037 2.4130478q0.62042236 1.1471558 1.5961304 2.0482025q1.2512207 1.1554565 2.5205078 1.6470413q1.2693481 0.49158478 2.4508057 0.15766907q1.170044 -0.34451294 1.9975586 -1.2392273q1.0079346 -1.089714 1.0768433 -2.4298096q0.068847656 -1.3400955 -0.9268799 -2.7487793zm6.1202393 0.28647614l-9.814636 -9.063484l3.1298218 -3.38385q1.050354 -1.1355972 1.7619019 -1.6057358q0.9581909 -0.6677551 2.0264282 -0.7872009q1.3757935 -0.17578125 2.7474976 0.38913727q1.3823853 0.55345154 2.690979 1.7619095q1.1134644 1.0282593 1.7418823 2.097725q0.6168823 1.0588684 0.7974243 1.9912415q0.19116211 0.92089844 0.078430176 1.710083q-0.12420654 0.77858734 -0.588562 1.6258392q-0.4758911 0.83664703 -1.2928467 1.7198868l-3.2783203 3.5444489zm0.039489746 -2.3668442l1.9415283 -2.0991364q0.89123535 -0.9635391 1.2282715 -1.6731415q0.32562256 -0.7201996 0.30041504 -1.3602676q-0.03479004 -0.88285065 -0.5819702 -1.856041q-0.53656006 -0.9846649 -1.6500244 -2.0129242q-1.538147 -1.4204712 -2.831482 -1.6790009q-1.293335 -0.25852966 -2.2372437 0.20970917q-0.684021 0.3253708 -1.7556152 1.4839096l-1.909729 2.0647202l7.4958496 6.9221725z" fill-rule="nonzero"/><path fill="#000000" fill-opacity="0.0" d="m568.0 149.98425l48.0 0l0 42.015747l-48.0 0z" fill-rule="evenodd"/><path fill="#000000" d="m577.875 170.40425q0 -3.34375 1.796875 -5.21875q1.796875 -1.875 4.59375 -1.875q2.8125 0 4.59375 1.90625q1.78125 1.90625 1.78125 5.03125q0 3.09375 -1.796875 5.0q-1.78125 1.890625 -4.578125 1.890625q-2.015625 0 -3.53125 -1.0q-1.515625 -1.015625 -2.1875 -2.59375q-0.671875 -1.59375 -0.671875 -3.140625zm1.828125 0.015625q0 2.296875 1.234375 3.75q1.234375 1.453125 3.3125 1.453125q2.046875 0 3.3125 -1.4375q1.265625 -1.4375 1.265625 -3.953125q0 -2.546875 -1.28125 -3.96875q-1.265625 -1.421875 -3.265625 -1.421875q-1.96875 0 -3.28125 1.34375q-1.296875 1.328125 -1.296875 4.234375zm1.921875 0.59375l0 -1.5625l5.28125 0l0 1.5625l-5.28125 0z" fill-rule="nonzero"/><path fill="#000000" fill-opacity="0.0" d="m619.0866 198.01575l47.62207 -6.015747l5.291321 41.669296l-47.62207 6.015747z" fill-rule="evenodd"/><path fill="#000000" d="m631.37585 223.59727l3.4016724 -13.895248l1.8911743 -0.23890686l7.1085815 12.567566l-1.9997559 0.2526245l-2.0444336 -3.8207855l-5.5496826 0.7010498l-0.9473877 4.198715l-1.8601685 0.23498535zm3.1380615 -5.924362l4.4954834 -0.56788635l-1.8616333 -3.4973907q-0.8326416 -1.5957336 -1.2785034 -2.6260986q-0.10211182 1.3043365 -0.39227295 2.6166687l-0.96307373 4.074707zm10.587036 4.190567l-1.6829224 -13.25296l4.976074 -0.6285858q1.519165 -0.19190979 2.4849854 0.095565796q0.9657593 0.28749084 1.5836182 1.0598907q0.6333618 0.7704468 0.7495117 1.6849823q0.10821533 0.8525238 -0.26037598 1.6708069q-0.35510254 0.80081177 -1.2280884 1.3678131q1.2388916 0.20573425 1.99823 0.9760132q0.7593384 0.7702942 0.90496826 1.9173279q0.11810303 0.9300232 -0.18255615 1.786972q-0.2871704 0.83947754 -0.82110596 1.3479156q-0.51849365 0.5064697 -1.3570557 0.8486328q-0.84051514 0.32667542 -2.1116943 0.48724365l-5.053589 0.63838196zm0.79089355 -7.911499l2.852356 -0.36032104q1.1781616 -0.14881897 1.6564941 -0.35098267q0.6409912 -0.28572083 0.92297363 -0.793808q0.28198242 -0.5081024 0.19342041 -1.2056274q-0.08270264 -0.65101624 -0.4711914 -1.1059113q-0.375 -0.47235107 -0.9876709 -0.58395386q-0.61273193 -0.111587524 -2.0388794 0.068573l-2.635315 0.33288574l0.5078125 3.9991455zm0.77752686 6.122711l3.286377 -0.41514587q0.8526001 -0.10771179 1.18573 -0.21278381q0.5908203 -0.18487549 0.96240234 -0.48379517q0.3850708 -0.316391 0.58758545 -0.8302002q0.20251465 -0.51379395 0.12182617 -1.1493225q-0.09448242 -0.74401855 -0.55096436 -1.2375946q-0.44091797 -0.49551392 -1.1505737 -0.62635803q-0.69610596 -0.14830017 -1.9672241 0.012268066l-3.053833 0.3857727l0.5786743 4.5571594z" fill-rule="nonzero"/><path fill="#d9d9d9" d="m300.1808 518.6463c-20.647278 -19.395935 -26.086945 -50.05786 -13.371704 -75.37256c12.71521 -25.314667 40.559753 -39.258392 68.44681 -34.276154c27.887024 4.982239 49.180817 27.704895 52.343903 55.856384l-63.599792 7.1460266z" fill-rule="evenodd"/><path fill="#000000" fill-opacity="0.0" d="m344.0 472.0l152.0 -160.0" fill-rule="evenodd"/><path stroke="#000000" stroke-width="1.0" stroke-linejoin="round" stroke-linecap="butt" d="m344.0 472.0l147.8675 -155.65" fill-rule="evenodd"/><path fill="#000000" stroke="#000000" stroke-width="1.0" stroke-linecap="butt" d="m493.065 317.48764l1.9281006 -4.427765l-4.3230896 2.1524963z" fill-rule="evenodd"/><path fill="#000000" fill-opacity="0.0" d="m344.0 472.0l192.0 -24.0" fill-rule="evenodd"/><path stroke="#000000" stroke-width="1.0" stroke-linejoin="round" stroke-linecap="butt" d="m344.0 472.0l186.04633 -23.255768" fill-rule="evenodd"/><path fill="#000000" stroke="#000000" stroke-width="1.0" stroke-linecap="butt" d="m530.2512 450.38318l4.2981567 -2.2018433l-4.707947 -1.0761108z" fill-rule="evenodd"/><path fill="#000000" fill-opacity="0.0" d="m392.0 363.24408l32.59842 -35.24408l30.86615 28.503937l-32.59842 35.24408z" fill-rule="evenodd"/><path fill="#000000" d="m421.89243 363.66788l1.5317688 -0.98876953q1.2136536 1.8864136 1.0870056 3.7261658q-0.13812256 1.8291626 -1.5597839 3.366211q-1.4641418 1.5829773 -3.0299988 1.9872742q-1.566742 0.38226318 -3.271576 -0.21374512q-1.7056885 -0.6180725 -3.1176147 -1.9219666q-1.5267029 -1.4098511 -2.1220398 -3.0443115q-0.6068115 -1.6450806 -0.19494629 -3.2639465q0.41101074 -1.6409302 1.6098938 -2.9371338q1.3580322 -1.4682312 3.0271912 -1.7771606q1.6798096 -0.32037354 3.4065247 0.5510864l-0.8792114 1.5488586q-1.3858337 -0.64172363 -2.4726868 -0.433136q-1.087738 0.18655396 -1.989563 1.16156q-1.050354 1.1355896 -1.2110901 2.3908691q-0.16070557 1.25531 0.4711609 2.4130554q0.62039185 1.1471558 1.5960999 2.0481873q1.2512207 1.1554871 2.5205383 1.6470642q1.2693176 0.49157715 2.4508057 0.15765381q1.1699829 -0.34451294 1.9975586 -1.2392273q1.007904 -1.0896912 1.0767822 -2.4298096q0.068878174 -1.3400879 -0.92681885 -2.7487793zm6.120178 0.2864685l-9.814606 -9.063477l3.1298523 -3.38385q1.050354 -1.1355896 1.7618713 -1.6057434q0.9581909 -0.6677246 2.0264282 -0.7872009q1.3757629 -0.17575073 2.747528 0.38916016q1.3823547 0.5534363 2.690979 1.7619019q1.1134644 1.0282593 1.7418518 2.0977173q0.61691284 1.0588684 0.7974243 1.9912415q0.19116211 0.92089844 0.078430176 1.710083q-0.124176025 0.778595 -0.588562 1.6258545q-0.4758911 0.8366394 -1.2928162 1.7198792l-3.2783813 3.5444336zm0.039520264 -2.3668213l1.9415588 -2.0991516q0.89120483 -0.9635315 1.2282715 -1.6731262q0.32559204 -0.72021484 0.30038452 -1.3602905q-0.03479004 -0.882843 -0.5819397 -1.8560181q-0.53656006 -0.9846802 -1.6500244 -2.0129395q-1.538208 -1.4204712 -2.8315125 -1.6789856q-1.2933044 -0.25854492 -2.2372131 0.20968628q-0.6840515 0.32537842 -1.7556458 1.4839172l-1.909729 2.0647278l7.4958496 6.92218z" fill-rule="nonzero"/><path fill="#000000" fill-opacity="0.0" d="m443.0866 462.01575l47.62204 -6.015747l5.2913513 41.66928l-47.62204 6.015747z" fill-rule="evenodd"/><path fill="#000000" d="m455.37582 487.5973l3.4016724 -13.895264l1.8912354 -0.23892212l7.108551 12.567596l-1.9997253 0.252594l-2.0444946 -3.8207703l-5.549652 0.7010498l-0.9473572 4.1987l-1.8602295 0.23501587zm3.1380615 -5.9243774l4.4955444 -0.5679016l-1.8616638 -3.4973755q-0.8326416 -1.5957336 -1.2785034 -2.6260986q-0.10211182 1.3043213 -0.39224243 2.6166687l-0.96313477 4.074707zm10.587067 4.1905823l-1.6829224 -13.25296l4.976074 -0.6286011q1.5191956 -0.19189453 2.4849854 0.095581055q0.9657593 0.2874756 1.5836182 1.0598755q0.6333618 0.7704468 0.7494812 1.684967q0.10824585 0.85253906 -0.26034546 1.6708069q-0.35507202 0.80081177 -1.2280884 1.3678284q1.2388916 0.205719 1.99823 0.9760132q0.7593384 0.7702942 0.9049988 1.9173279q0.11810303 0.9300232 -0.18261719 1.7869568q-0.2871399 0.83950806 -0.82110596 1.3479309q-0.51846313 0.5064697 -1.3570251 0.8486328q-0.84054565 0.32666016 -2.1116943 0.48724365l-5.053589 0.6383972zm0.7909241 -7.9115295l2.8523254 -0.36029053q1.1781311 -0.14883423 1.6564941 -0.35101318q0.6409912 -0.28570557 0.92297363 -0.7937927q0.28198242 -0.5081177 0.19342041 -1.2056274q-0.08267212 -0.6510315 -0.4711914 -1.1059265q-0.375 -0.47235107 -0.9877014 -0.58392334q-0.6126709 -0.11160278 -2.0388489 0.06854248l-2.635315 0.33291626l0.507843 3.999115zm0.77749634 6.122711l3.286377 -0.41513062q0.8526001 -0.10769653 1.1857605 -0.21279907q0.5907898 -0.18487549 0.9623413 -0.48379517q0.38510132 -0.31637573 0.58761597 -0.8301697q0.20248413 -0.51382446 0.121795654 -1.1493225q-0.09448242 -0.7440491 -0.5509033 -1.2376099q-0.4409485 -0.49551392 -1.1505737 -0.6263733q-0.69610596 -0.14828491 -1.9672546 0.012298584l-3.0538635 0.3857727l0.57870483 4.557129z" fill-rule="nonzero"/><path fill="#000000" fill-opacity="0.0" d="m152.0 496.0l192.0 -24.0" fill-rule="evenodd"/><path stroke="#000000" stroke-width="1.0" stroke-linejoin="round" stroke-linecap="butt" d="m157.95367 495.25577l186.04633 -23.255768" fill-rule="evenodd"/><path fill="#000000" stroke="#000000" stroke-width="1.0" stroke-linecap="butt" d="m157.7488 493.61682l-4.2981873 2.2018433l4.7079315 1.0761108z" fill-rule="evenodd"/><path fill="#000000" fill-opacity="0.0" d="m203.08661 454.01575l47.622055 -6.015747l5.291336 41.66928l-47.62204 6.015747z" fill-rule="evenodd"/><path fill="#000000" d="m216.7555 479.423l-1.6829224 -13.25296l4.9760895 -0.6286011q1.5191803 -0.19189453 2.4849548 0.095581055q0.9657898 0.2874756 1.5836334 1.0598755q0.63334656 0.7704468 0.7494812 1.6849976q0.10826111 0.85250854 -0.26034546 1.6707764q-0.35507202 0.8008423 -1.2281036 1.3678284q1.2389069 0.20574951 1.9982452 0.9760132q0.7593384 0.7702942 0.9049835 1.9173279q0.11810303 0.9300232 -0.18258667 1.7869873q-0.2871704 0.83947754 -0.8211212 1.3479004q-0.5184479 0.5064697 -1.3570251 0.8486328q-0.84054565 0.32666016 -2.1116943 0.48724365l-5.053589 0.6383972zm0.7909241 -7.911499l2.8523254 -0.36032104q1.1781311 -0.14883423 1.6564789 -0.35101318q0.6409912 -0.28570557 0.92297363 -0.7937927q0.28199768 -0.50808716 0.19342041 -1.2056274q-0.08267212 -0.6510315 -0.4711914 -1.1059265q-0.37498474 -0.47235107 -0.98768616 -0.58392334q-0.61268616 -0.11160278 -2.0388489 0.06854248l-2.6352997 0.33291626l0.50782776 3.9991455zm0.7774811 6.122711l3.286377 -0.41516113q0.8526001 -0.10769653 1.1857758 -0.21279907q0.5907898 -0.18487549 0.9623413 -0.48379517q0.38508606 -0.31637573 0.5876007 -0.8301697q0.20251465 -0.51382446 0.12181091 -1.1493225q-0.09448242 -0.7440491 -0.5509186 -1.2376099q-0.44093323 -0.49551392 -1.1505737 -0.6263428q-0.6960907 -0.14831543 -1.9672394 0.012268066l-3.0538635 0.3857727l0.5786896 4.5571594zm9.3974 0.40353394l3.4016724 -13.895233l1.8912201 -0.23892212l7.108551 12.567596l-1.9997406 0.252594l-2.044464 -3.8207703l-5.549652 0.7010498l-0.94737244 4.1987l-1.8602142 0.23498535zm3.1380615 -5.924347l4.495529 -0.5679016l-1.8616638 -3.4973755q-0.8326416 -1.5957336 -1.2785034 -2.6260986q-0.102127075 1.3043213 -0.39224243 2.6166687l-0.9631195 4.074707z" fill-rule="nonzero"/><path fill="#000000" fill-opacity="0.0" d="m192.0 632.0l152.0 -160.0" fill-rule="evenodd"/><path stroke="#000000" stroke-width="1.0" stroke-linejoin="round" stroke-linecap="butt" d="m196.1325 627.65l147.8675 -155.65002" fill-rule="evenodd"/><path fill="#000000" stroke="#000000" stroke-width="1.0" stroke-linecap="butt" d="m194.935 626.5124l-1.9281158 4.4277344l4.32312 -2.1524658z" fill-rule="evenodd"/><path fill="#000000" fill-opacity="0.0" d="m248.53543 579.2441l32.59842 -35.24408l30.86615 28.503967l-32.59842 35.24408z" fill-rule="evenodd"/><path fill="#000000" d="m275.3997 589.84515l-9.814575 -9.063477l3.1298218 -3.38385q1.050354 -1.1355591 1.7619019 -1.6057129q0.9581604 -0.66778564 2.0264282 -0.78723145q1.3757629 -0.17578125 2.7474976 0.38916016q1.3823547 0.5534668 2.690979 1.7619019q1.1134644 1.0282593 1.7418518 2.0977173q0.61691284 1.0588989 0.79745483 1.991272q0.19113159 0.92089844 0.078430176 1.710083q-0.12420654 0.77856445 -0.5885925 1.6257935q-0.4758606 0.8366699 -1.2928162 1.7199097l-3.2783813 3.5444336zm0.039520264 -2.3668213l1.9415588 -2.099121q0.89120483 -0.963562 1.2282715 -1.6731567q0.32559204 -0.72021484 0.30038452 -1.3602905q-0.03475952 -0.8828125 -0.5819397 -1.8560181q-0.53656006 -0.9846802 -1.6500244 -2.0129395q-1.5381775 -1.4204712 -2.8315125 -1.6790161q-1.2933044 -0.2584839 -2.2372131 0.2097168q-0.6840515 0.32537842 -1.7556152 1.4839478l-1.909729 2.0646973l7.495819 6.92218zm12.136993 -17.701233l1.5317688 -0.98883057q1.2136536 1.8864746 1.0870056 3.7261963q-0.13812256 1.8291626 -1.5598145 3.366211q-1.4641113 1.5829468 -3.0299683 1.9873047q-1.566742 0.38220215 -3.271576 -0.21380615q-1.7056885 -0.618042 -3.1176147 -1.921936q-1.5267029 -1.4098511 -2.1220398 -3.0443115q-0.6068115 -1.6450806 -0.19494629 -3.263977q0.41101074 -1.6409302 1.6098938 -2.9371338q1.3580322 -1.4682007 3.0271912 -1.7771606q1.679779 -0.32037354 3.4065247 0.5510864l-0.8792114 1.5488892q-1.3858337 -0.64172363 -2.4727173 -0.43310547q-1.087738 0.18652344 -1.9895325 1.161499q-1.050354 1.1356201 -1.2110901 2.3909302q-0.16070557 1.255249 0.4711609 2.413025q0.62039185 1.1471558 1.5960999 2.0482178q1.2512207 1.1554565 2.5205383 1.6470337q1.2692871 0.49157715 2.4507751 0.15765381q1.1700134 -0.34448242 1.9975586 -1.2391968q1.0079346 -1.0897217 1.0768127 -2.4298096q0.068878174 -1.3401489 -0.92681885 -2.7487793z" fill-rule="nonzero"/><path fill="#000000" fill-opacity="0.0" d="m240.0 493.98425l48.0 0l0 42.015747l-48.0 0z" fill-rule="evenodd"/><path fill="#000000" d="m249.875 514.40424q0 -3.34375 1.796875 -5.21875q1.796875 -1.875 4.59375 -1.875q2.8125 0 4.59375 1.90625q1.78125 1.90625 1.78125 5.03125q0 3.09375 -1.796875 5.0q-1.78125 1.890625 -4.578125 1.890625q-2.015625 0 -3.53125 -1.0q-1.515625 -1.015625 -2.1875 -2.59375q-0.671875 -1.59375 -0.671875 -3.140625zm1.828125 0.015625q0 2.296875 1.234375 3.75q1.234375 1.453125 3.3125 1.453125q2.046875 0 3.3125 -1.4375q1.265625 -1.4375 1.265625 -3.953125q0 -2.546875 -1.28125 -3.96875q-1.265625 -1.421875 -3.265625 -1.421875q-1.96875 0 -3.28125 1.34375q-1.296875 1.328125 -1.296875 4.234375zm1.921875 0.59375l0 -1.5625l5.28125 0l0 1.5625l-5.28125 0zm11.120789 -2.734375l-0.421875 -2.5l0 -2.234375l1.875 0l0 2.234375l-0.4375 2.5l-1.015625 0zm3.5618286 0l-0.421875 -2.5l0 -2.234375l1.875 0l0 2.234375l-0.4375 2.5l-1.015625 0z" fill-rule="nonzero"/><path fill="#000000" fill-opacity="0.0" d="m288.0 384.0l48.0 0l0 42.015747l-48.0 0z" fill-rule="evenodd"/><path fill="#000000" d="m297.875 404.41998q0 -3.34375 1.796875 -5.21875q1.796875 -1.875 4.59375 -1.875q2.8125 0 4.59375 1.90625q1.78125 1.90625 1.78125 5.03125q0 3.09375 -1.796875 5.0q-1.78125 1.890625 -4.578125 1.890625q-2.015625 0 -3.53125 -1.0q-1.515625 -1.015625 -2.1875 -2.59375q-0.671875 -1.59375 -0.671875 -3.140625zm1.828125 0.015625q0 2.296875 1.234375 3.75q1.234375 1.453125 3.3125 1.453125q2.046875 0 3.3125 -1.4375q1.265625 -1.4375 1.265625 -3.953125q0 -2.546875 -1.28125 -3.96875q-1.265625 -1.421875 -3.265625 -1.421875q-1.96875 0 -3.28125 1.34375q-1.296875 1.328125 -1.296875 4.234375zm1.921875 0.59375l0 -1.5625l5.28125 0l0 1.5625l-5.28125 0zm11.120789 -2.734375l-0.421875 -2.5l0 -2.234375l1.875 0l0 2.234375l-0.4375 2.5l-1.015625 0z" fill-rule="nonzero"/></g></svg>